<svg width="149" height="29" viewBox="0 0 149 29" fill="none" xmlns="http://www.w3.org/2000/svg">
<g clip-path="url(#clip0_608_246)">
<path d="M39.6973 22.8528V28.1799H36.3562V10.838H39.6973V11.6677C40.6923 11.0207 41.8515 10.6716 43.0383 10.6616C46.8323 10.6616 49.6221 13.6779 49.6221 17.2714C49.6221 20.8649 46.8583 23.8811 43.0383 23.8811C41.8464 23.8831 40.6818 23.5246 39.6973 22.8528ZM39.6973 15.6899V18.7563C39.9608 19.3174 40.3704 19.7974 40.8831 20.1459C41.3958 20.4945 41.9928 20.6988 42.6116 20.7374C43.2303 20.7761 43.8481 20.6477 44.4002 20.3657C44.9523 20.0837 45.4185 19.6584 45.7498 19.1344C46.0812 18.6104 46.2656 18.007 46.2837 17.3873C46.3019 16.7676 46.1531 16.1544 45.8529 15.612C45.5527 15.0695 45.1123 14.6177 44.5776 14.3039C44.0429 13.9901 43.4337 13.8258 42.8137 13.8282C42.1728 13.8192 41.5419 13.9885 40.9915 14.3172C40.4412 14.646 39.9931 15.1212 39.6973 15.6899Z" fill="#083E9E"/>
<path d="M51.4319 7.34274C51.421 7.08984 51.4619 6.83737 51.5522 6.60087C51.6424 6.36436 51.7801 6.14882 51.9567 5.96749C52.1334 5.78616 52.3452 5.64288 52.5793 5.54646C52.8133 5.45003 53.0646 5.4025 53.3177 5.40678C53.5743 5.40233 53.8292 5.44919 54.0675 5.5446C54.3057 5.64001 54.5225 5.78205 54.7051 5.96239C54.8877 6.14273 55.0324 6.35774 55.1307 6.59477C55.2291 6.83181 55.2791 7.08611 55.2778 7.34274C55.2725 7.85887 55.0635 8.35201 54.6965 8.7149C54.3294 9.07778 53.8339 9.28108 53.3177 9.28056C53.066 9.27939 52.8171 9.22808 52.5854 9.12964C52.3537 9.03119 52.144 8.88757 51.9684 8.70717C51.7928 8.52677 51.655 8.31321 51.5629 8.07894C51.4708 7.84467 51.4262 7.59441 51.4319 7.34274ZM51.6342 10.8379H55.0273V23.6805H51.6342V10.8379Z" fill="#083E9E"/>
<path d="M57.0356 17.223C57.0288 16.3587 57.1949 15.5016 57.5241 14.7024C57.8533 13.9031 58.3389 13.1777 58.9525 12.5688C59.566 11.9599 60.2951 11.4798 61.0969 11.1568C61.8986 10.8337 62.7569 10.6742 63.6212 10.6875C64.8029 10.6881 65.9661 10.9815 67.0068 11.5414V10.8379H70.3256V22.9511C70.3256 26.2922 67.4337 28.1038 63.8161 28.1038C61.4532 28.1038 59.1906 27.4003 57.7075 26.2476L59.0904 23.8606C60.4998 24.7636 62.1423 25.2351 63.8161 25.2174C66.153 25.2174 66.8824 24.2894 66.9827 22.7803C65.976 23.4242 64.8087 23.7722 63.6138 23.7845C59.7678 23.7808 57.0356 20.9168 57.0356 17.223ZM67.0068 18.6541V15.7901C66.7261 15.1925 66.282 14.6865 65.726 14.3305C65.17 13.9744 64.5246 13.7829 63.8644 13.778C63.4084 13.7736 62.9562 13.8594 62.5335 14.0303C62.1108 14.2013 61.7261 14.4541 61.4015 14.7743C61.0769 15.0944 60.8187 15.4756 60.6419 15.8958C60.4651 16.3161 60.373 16.7671 60.3711 17.223C60.3711 19.2072 61.8783 20.5901 63.8402 20.5901C64.4985 20.6072 65.1478 20.4336 65.7096 20.0901C66.2715 19.7466 66.722 19.2479 67.0068 18.6541Z" fill="#083E9E"/>
<path d="M72.3396 17.223C72.3328 16.3587 72.4988 15.5016 72.828 14.7024C73.1572 13.9031 73.6429 13.1777 74.2564 12.5688C74.87 11.9599 75.5991 11.4798 76.4008 11.1568C77.2026 10.8337 78.0609 10.6742 78.9252 10.6875C80.1094 10.6871 81.2752 10.9805 82.3182 11.5414V10.8379H85.6351V22.9511C85.6351 26.2922 82.7451 28.1038 79.1275 28.1038C76.7646 28.1038 74.502 27.4003 73.0189 26.2476L74.4017 23.8606C75.811 24.7639 77.4536 25.2355 79.1275 25.2174C81.4644 25.2174 82.1938 24.2894 82.2941 22.7803C81.2873 23.424 80.12 23.7719 78.9252 23.7845C75.0792 23.7808 72.3396 20.9168 72.3396 17.223ZM82.3182 18.6541V15.7901C82.0373 15.1926 81.5932 14.6867 81.0372 14.3308C80.4812 13.9748 79.8359 13.7832 79.1757 13.778C78.7198 13.7736 78.2675 13.8594 77.8449 14.0303C77.4222 14.2013 77.0375 14.4541 76.7129 14.7743C76.3883 15.0944 76.1301 15.4756 75.9533 15.8958C75.7764 16.3161 75.6844 16.7671 75.6825 17.223C75.6825 19.2072 77.1897 20.5901 79.1516 20.5901C79.8099 20.607 80.459 20.4333 81.0208 20.0898C81.5826 19.7463 82.0332 19.2477 82.3182 18.6541Z" fill="#083E9E"/>
<path d="M90.5094 10.8379L93.8783 19.4077L97.3455 10.8379H100.872L93.4755 28.1799H90.3349L92.191 23.5562L86.7915 10.8379H90.5094Z" fill="#083E9E"/>
<path d="M100.232 10.8379H103.825L107.099 19.5098L110.342 10.8379H113.869L108.716 23.6806H105.336L100.232 10.8379Z" fill="#083E9E"/>
<path d="M114.106 17.1713C114.106 13.5536 116.694 10.5615 120.74 10.5615C124.486 10.5615 127.331 13.3773 127.4 17.0766C127.426 17.3947 127.426 17.7144 127.4 18.0325H117.273C117.373 19.8422 119.107 21.0228 120.967 21.0228C122.5 21.0228 123.404 20.5958 124.46 19.7235L126.296 21.6594C124.811 23.2167 123.326 23.9462 120.967 23.9462C116.62 23.9332 114.106 20.6905 114.106 17.1713ZM117.448 15.6381H123.933C123.606 14.4334 122.448 13.3773 120.69 13.3773C118.654 13.3773 117.8 14.4075 117.448 15.6381Z" fill="#083E9E"/>
<path d="M128.102 22.2997L129.744 19.6343C131.219 20.617 132.947 21.1497 134.719 21.1675C136.404 21.1675 137.258 20.7406 137.258 20.013C137.258 19.5341 136.855 19.1833 136.002 19.0069L132.475 18.2533C129.887 17.6965 128.705 16.4696 128.705 14.4594C128.705 12.323 130.515 10.5374 134.26 10.5374C136.521 10.5374 138.53 11.1926 139.914 12.0464L138.381 14.6097C137.251 14.0065 135.744 13.3531 134.158 13.3531C132.727 13.3531 131.898 13.7058 131.898 14.3573C131.898 14.7861 132.2 15.0626 133.028 15.213L135.998 15.7698C139.215 16.3972 140.453 17.8301 140.453 19.7661C140.453 22.5503 137.668 24.013 134.621 24.013C132.331 24.0572 130.074 23.4641 128.102 22.2997Z" fill="#083E9E"/>
<path d="M141.121 10.838H143.031V7.29459L146.372 5.13403V10.838H148.332V13.754H146.374V23.6825H143.033V13.754H141.119V10.838H141.121Z" fill="#083E9E"/>
<path d="M27.9907 12.9041C27.9349 12.0889 27.8013 11.2809 27.5916 10.4911C26.6357 6.96444 24.6218 4.1895 21.5517 2.20899C19.618 0.951366 17.3968 0.204807 15.096 0.0391612C14.1294 -0.0314414 13.1582 -0.00532577 12.1967 0.117119C11.1839 0.25118 10.1883 0.493238 9.2269 0.83916C6.66692 1.76259 4.43267 3.41413 2.79897 5.59064C1.16527 7.76715 0.203357 10.3737 0.0315545 13.0897C0 13.589 0 14.092 0 14.5932V26.7769C0 27.0935 0.125744 27.397 0.349568 27.6209C0.573393 27.8447 0.876965 27.9704 1.1935 27.9704H5.90068C6.19526 27.9686 6.47894 27.8588 6.6979 27.6617C6.91686 27.4646 7.05589 27.1941 7.08862 26.9013C7.11959 26.7869 7.13581 26.669 7.13688 26.5505V26.2683C7.1341 26.2468 7.1341 26.2249 7.13688 26.2034V26.1718C7.16899 26.1804 7.19921 26.1948 7.22597 26.2145C8.98667 27.1882 10.9366 27.7706 12.9429 27.9222C13.7465 27.9816 14.5536 27.9735 15.3559 27.898C17.2444 27.7241 19.0774 27.1654 20.7418 26.2562C22.4062 25.3471 23.8669 24.1068 25.0338 22.6117C26.6972 20.5194 27.7149 17.9878 27.9628 15.3264C28.0468 14.5215 28.0561 13.7107 27.9907 12.9041ZM16.5197 20.6888C16.5114 20.7317 16.4882 20.7703 16.4543 20.7978C16.4203 20.8253 16.3778 20.8399 16.3341 20.8391H11.6937C11.65 20.8399 11.6075 20.8253 11.5735 20.7978C11.5396 20.7703 11.5164 20.7317 11.5081 20.6888V20.6591V20.4865C11.5071 20.2735 11.5307 20.0611 11.5786 19.8535C11.6083 19.783 11.6269 19.6994 11.6566 19.6215C11.6863 19.5435 11.716 19.4711 11.7457 19.395C11.7754 19.3189 11.8236 19.2503 11.8645 19.1853L11.9313 19.0851C11.9749 19.0202 12.0227 18.9582 12.0742 18.8995C12.1281 18.8326 12.1819 18.7751 12.2357 18.7138C12.515 18.4392 12.8543 18.2333 13.2269 18.1124C12.9059 17.9377 12.6522 17.6611 12.5058 17.3263C12.3593 16.9915 12.3284 16.6174 12.418 16.2631C12.5075 15.9088 12.7124 15.5944 13.0003 15.3693C13.2883 15.1443 13.6429 15.0214 14.0083 15.0201C14.4446 15.0234 14.8623 15.1973 15.1721 15.5046C15.3515 15.685 15.4865 15.9047 15.5665 16.1462C15.6466 16.3877 15.6696 16.6444 15.6336 16.8963C15.5976 17.1482 15.5037 17.3883 15.3592 17.5977C15.2147 17.8071 15.0236 17.9801 14.8009 18.1032C15.3021 18.2684 15.7383 18.5879 16.047 19.0159C16.3557 19.444 16.5212 19.9587 16.5197 20.4865C16.5197 20.5533 16.5197 20.6257 16.5197 20.6888ZM24.5197 10.5802H3.51554C3.47617 10.5799 3.43742 10.5703 3.40249 10.5522C3.36756 10.534 3.33744 10.5078 3.31461 10.4757C3.29177 10.4437 3.27688 10.4066 3.27115 10.3677C3.26543 10.3287 3.26903 10.289 3.28166 10.2517C4.0654 8.03061 5.51876 6.10732 7.44143 4.7469C9.36409 3.38649 11.6614 2.65593 14.0167 2.65593C16.372 2.65593 18.6693 3.38649 20.5919 4.7469C22.5146 6.10732 23.968 8.03061 24.7517 10.2517C24.7643 10.2888 24.7679 10.3284 24.7623 10.3672C24.7566 10.406 24.7419 10.443 24.7193 10.475C24.6967 10.507 24.6668 10.5333 24.6321 10.5515C24.5974 10.5698 24.5589 10.5796 24.5197 10.5802Z" fill="#083E9E"/>
</g>
<defs>
<clipPath id="clip0_608_246">
<rect width="148.334" height="28.18" fill="white"/>
</clipPath>
</defs>
</svg>
